<svg viewBox="0 0 24 24" xmlns="http://www.w3.org/2000/svg"><path d="m16.5 22h-9a3 3 0 0 1 -3-3v-14a3 3 0 0 1 3-3h6.59a1 1 0 0 1 .7.29l4.42 4.42a1 1 0 0 1 .29.7v11.59a3 3 0 0 1 -3 3z" fill="#4caf50"/><path d="m18.8 7.74h-3.6a1.5 1.5 0 0 1 -1.5-1.5v-3.6a.55.55 0 0 1 .94-.39l4.55 4.55a.55.55 0 0 1 -.39.94z" fill="#b9f6ca"/><g fill="#e8f5e9"><path d="m6.75 18.1a.43.43 0 0 1 -.31-.1.33.33 0 0 1 -.11-.26.48.48 0 0 1 .12-.32l.67-.81-.6-.72a.51.51 0 0 1 -.13-.33.36.36 0 0 1 .12-.26.43.43 0 0 1 .31-.11.66.66 0 0 1 .3.07.75.75 0 0 1 .22.19l.36.46.35-.46a.66.66 0 0 1 .53-.26.44.44 0 0 1 .3.11.32.32 0 0 1 .12.26.48.48 0 0 1 -.14.33l-.59.72.67.81a.49.49 0 0 1 .13.32.31.31 0 0 1 -.07.26.45.45 0 0 1 -.31.11.67.67 0 0 1 -.3-.06.82.82 0 0 1 -.23-.2l-.42-.54-.42.54a.77.77 0 0 1 -.32.15.5.5 0 0 1 -.25.1z"/><path d="m10.84 18.11a1 1 0 0 1 -.81-.29 1.28 1.28 0 0 1 -.26-.89v-2.45a.45.45 0 0 1 .5-.51.47.47 0 0 1 .52.51v2.42a.46.46 0 0 0 .08.31.29.29 0 0 0 .21.09h.18a.16.16 0 0 1 .15.07.66.66 0 0 1 .05.31.51.51 0 0 1 -.08.3.46.46 0 0 1 -.25.13h-.13z"/><path d="m13 18.11a3 3 0 0 1 -.52 0 1.71 1.71 0 0 1 -.47-.13.36.36 0 0 1 -.23-.2.33.33 0 0 1 0-.26.35.35 0 0 1 .16-.2.28.28 0 0 1 .27 0 2.18 2.18 0 0 0 .43.12 1.61 1.61 0 0 0 .37 0 .56.56 0 0 0 .3-.06.17.17 0 0 0 .1-.16.15.15 0 0 0 -.06-.13.38.38 0 0 0 -.17-.06l-.64-.11a.94.94 0 0 1 -.55-.25.73.73 0 0 1 -.19-.53.84.84 0 0 1 .16-.51 1.11 1.11 0 0 1 .47-.33 1.79 1.79 0 0 1 .68-.12 3.3 3.3 0 0 1 .47 0 2 2 0 0 1 .41.13.36.36 0 0 1 .2.2.39.39 0 0 1 -.19.49.32.32 0 0 1 -.29 0 1.82 1.82 0 0 0 -.33-.11 1.47 1.47 0 0 0 -.27 0 .69.69 0 0 0 -.34.07.19.19 0 0 0 -.09.16c0 .1.07.16.21.19l.63.11a1 1 0 0 1 .57.24.7.7 0 0 1 .2.52.83.83 0 0 1 -.36.72 1.58 1.58 0 0 1 -.93.21z"/><path d="m15.22 18.1a.41.41 0 0 1 -.3-.11.31.31 0 0 1 -.12-.26.49.49 0 0 1 .13-.32l.66-.81-.59-.72a.47.47 0 0 1 -.13-.33.32.32 0 0 1 .12-.26.41.41 0 0 1 .3-.11.66.66 0 0 1 .53.26l.35.46.36-.46a.67.67 0 0 1 .23-.19.65.65 0 0 1 .29-.07.45.45 0 0 1 .31.11.35.35 0 0 1 .11.26.47.47 0 0 1 -.13.33l-.59.72.66.81a.46.46 0 0 1 .14.32.35.35 0 0 1 -.13.26.44.44 0 0 1 -.3.11.67.67 0 0 1 -.3-.06.7.7 0 0 1 -.23-.2l-.42-.54-.43.54a.64.64 0 0 1 -.22.19.56.56 0 0 1 -.3.07z"/></g></svg>